<?xml version="1.0" standalone="no"?>
<!DOCTYPE svg PUBLIC "-//W3C//DTD SVG 20010904//EN"
 "http://www.w3.org/TR/2001/REC-SVG-20010904/DTD/svg10.dtd">
<svg version="1.0" xmlns="http://www.w3.org/2000/svg"
 width="260.000000pt" height="260.000000pt" viewBox="0 0 260.000000 260.000000"
 preserveAspectRatio="xMidYMid meet">
<metadata>
Created by potrace 1.11, written by Peter Selinger 2001-2013
</metadata>
<g transform="translate(0.000000,260.000000) scale(0.100000,-0.100000)"
fill="#000000" stroke="none">
<path d="M1159 2575 c-338 -88 -590 -372 -698 -785 -11 -41 -22 -88 -24 -105
-3 -16 -10 -57 -16 -90 -15 -88 -23 -209 -26 -395 -2 -141 -5 -174 -24 -225
-48 -132 -58 -262 -30 -380 7 -27 27 -84 45 -125 40 -92 53 -147 54 -221 0
-48 -29 -172 -55 -232 -7 -16 5 -17 201 -15 l209 3 1 42 c1 46 14 68 109 188
31 39 78 99 106 134 l49 64 -120 121 c-169 171 -244 278 -255 365 -3 23 -13
41 -27 51 -35 23 -76 67 -83 90 -5 15 15 54 74 149 45 71 88 132 97 135 9 3
46 6 82 6 55 0 95 -9 219 -52 84 -28 156 -49 159 -45 11 10 -16 65 -34 70 -9
3 -71 24 -137 47 -134 47 -185 54 -234 34 -18 -8 -35 -14 -37 -14 -2 0 19 42
45 93 27 50 54 110 61 132 34 109 147 194 385 290 l84 34 82 -45 c45 -24 86
-44 91 -44 4 0 8 -3 8 -8 0 -4 13 -13 30 -20 53 -24 154 -132 175 -187 23 -63
53 -127 90 -189 l28 -48 -31 16 c-56 29 -89 21 -266 -63 -58 -27 -106 -54
-106 -60 0 -5 -3 -16 -6 -25 -11 -29 19 -20 161 44 62 27 144 50 206 57 55 5
57 4 81 -28 108 -149 148 -210 148 -227 0 -11 -18 -40 -40 -64 l-39 -43 24 50
c13 28 25 58 25 67 0 22 -61 53 -122 62 -27 4 -48 11 -48 17 0 5 5 9 10 9 6 0
10 4 10 9 0 6 -9 8 -20 6 -26 -5 -25 2 3 26 26 22 11 25 -17 4 -19 -15 -56
-21 -56 -9 0 3 7 12 15 20 8 9 15 21 15 27 0 7 -11 -1 -25 -16 -16 -17 -36
-27 -54 -27 -44 0 -113 -28 -151 -61 -19 -16 -46 -36 -60 -43 -48 -26 -162
-56 -195 -51 -51 6 -186 68 -241 110 -65 50 -89 58 -155 50 -53 -5 -58 -4 -77
20 -11 14 -22 25 -26 25 -10 0 7 -35 23 -47 25 -20 -9 -17 -37 3 -34 24 -38
10 -5 -16 l28 -23 -30 7 -30 7 23 -19 23 -18 -63 -13 c-80 -16 -118 -36 -118
-62 0 -68 120 -201 216 -238 133 -51 189 -41 351 64 124 81 127 81 253 -3 165
-110 214 -116 373 -48 l38 17 -15 -23 c-8 -13 -22 -45 -32 -73 -30 -90 -123
-202 -265 -321 -44 -36 -79 -70 -79 -76 0 -6 61 -86 135 -179 110 -137 135
-174 137 -203 l2 -36 242 0 243 0 -26 73 c-21 58 -26 91 -26 172 -1 93 1 105
32 175 50 110 62 163 65 285 4 133 -20 287 -68 440 -27 85 -34 122 -35 202 -9
462 -107 790 -298 1003 -94 104 -248 200 -362 225 -12 3 -31 8 -43 11 -13 3
-66 7 -119 8 -74 3 -115 -2 -180 -19z m250 -400 c0 -5 -4 -3 -9 5 -5 8 -9 22
-9 30 0 16 17 -16 18 -35z m-14 -132 c-8 -25 -22 -53 -31 -62 -14 -13 -16 -13
-7 -1 6 8 16 33 23 55 14 43 19 55 25 55 2 0 -2 -21 -10 -47z"/>
<path d="M1015 740 c-19 -31 73 -138 148 -170 69 -30 185 -33 240 -6 49 24
107 86 129 137 18 41 13 43 -25 10 -12 -10 -50 -18 -100 -23 -45 -4 -95 -10
-110 -12 -28 -4 -178 32 -241 58 -20 8 -38 11 -41 6z"/>
</g>
</svg>
